<?xml version="1.0" standalone="no"?>
<!DOCTYPE svg PUBLIC "-//W3C//DTD SVG 1.1//EN" "http://www.w3.org/Graphics/SVG/1.1/DTD/svg11.dtd" >
<svg xmlns="http://www.w3.org/2000/svg">
<metadata></metadata>
<defs>
<font id="dinneuzeitgrotesk-lightRg" horiz-adv-x="1064" >
<font-face units-per-em="2048" ascent="1638" descent="-410" />
<missing-glyph horiz-adv-x="532" />
<glyph horiz-adv-x="2048" />
<glyph horiz-adv-x="2048" />
<glyph unicode="&#xd;" horiz-adv-x="2048" />
<glyph unicode=" "  horiz-adv-x="532" />
<glyph unicode="&#x09;" horiz-adv-x="532" />
<glyph unicode="&#xa0;" horiz-adv-x="532" />
<glyph unicode="!" horiz-adv-x="720" d="M225 119q0 55 40 95t95 40q56 0 96 -40t40 -95t-40 -94t-96 -39q-54 0 -95 39q-40 39 -40 94zM262 375v1181h197v-1181h-197z" />
<glyph unicode="&#x22;" d="M301 979v577h152v-577h-152zM612 979v577h152v-577h-152z" />
<glyph unicode="#" d="M4 461v127h229l46 327h-209v127h227l63 461h140l-64 -461h275l63 461h139l-63 -461h211v-127h-230l-45 -327h209v-127h-227l-63 -461h-140l64 461h-275l-63 -461h-139l63 461h-211zM373 588h274l45 327h-274z" />
<glyph unicode="$" d="M29 422h196q11 -106 66 -180q56 -75 178 -97v529l-70 26q-175 66 -260 165q-86 100 -86 245q0 176 122 284q121 108 294 126v153h115v-153q172 -12 295 -124q120 -110 135 -329h-185q-18 122 -80 199t-165 92v-518l90 -33q186 -66 274 -169t88 -241q0 -173 -124 -287 t-328 -124v-156h-115v154q-186 16 -305 125q-119 108 -135 313zM250 1116q0 -81 54 -138q53 -56 165 -97v477q-96 -15 -145 -64t-64 -106q-7 -20 -8 -37q-2 -24 -2 -35zM584 145q114 10 185 77q71 66 71 159q0 87 -68 147t-174 99l-14 6v-488z" />
<glyph unicode="%" horiz-adv-x="1857" d="M174 1059v168q0 135 84 214q83 79 215 79q134 0 216 -79q83 -80 83 -214v-168q0 -135 -83 -213t-216 -78q-131 0 -215 78t-84 213zM336 1085q0 -83 34 -130q34 -48 103 -48q72 0 105 48q32 47 32 130v115q0 85 -32 132q-33 48 -105 48q-69 0 -103 -48q-34 -47 -34 -132 v-115zM420 -16l856 1536h162l-856 -1536h-162zM1085 274v168q0 134 84 214q83 79 215 79q135 0 217 -79t82 -214v-168q0 -136 -82 -212t-217 -76q-132 0 -215 76q-84 76 -84 212zM1247 301q0 -83 34 -130q35 -48 103 -48q72 0 105 48t33 130v115q0 84 -33 132t-105 48 q-68 0 -103 -48q-34 -47 -34 -132v-115z" />
<glyph unicode="&#x26;" horiz-adv-x="1517" d="M145 399q0 179 113 298t313 225q-46 62 -73 109q-28 47 -39 89q-3 14 -7 42q-3 21 -3 44q0 132 87 215q86 82 218 82q115 0 183 -58q67 -57 95 -128q8 -23 12 -43q5 -23 5 -41q0 -119 -64 -206q-61 -83 -168 -150l254 -363l225 205l125 -129l-245 -221l264 -369h-240 l-166 240q-63 -63 -107 -103q-51 -46 -100 -76q-61 -39 -125 -57q-63 -18 -139 -18q-184 0 -301 123t-117 290zM330 412q0 -100 70 -171q71 -73 171 -73q85 0 173 60q92 62 190 159l-270 395q-160 -98 -232 -168q-75 -73 -92 -137q-7 -18 -8 -33q-2 -22 -2 -32zM633 1212 q0 -45 24 -93q18 -36 66 -107q29 20 56 45q24 23 42 45q23 29 33 58t10 59q0 49 -28 86q-27 36 -82 36h-9h-6q-41 -6 -73 -37q-33 -32 -33 -92z" />
<glyph unicode="'" horiz-adv-x="606" d="M227 979v577h152v-577h-152z" />
<glyph unicode="(" horiz-adv-x="720" d="M141 590q0 286 105 551q106 268 284 489l138 -110q-158 -199 -244 -440t-86 -490t86 -490q85 -238 244 -438v-2l-138 -111q-178 222 -284 491q-105 265 -105 550z" />
<glyph unicode=")" horiz-adv-x="720" d="M53 -340q160 204 244 440q86 241 86 490t-86 490t-244 440l137 110q180 -224 285 -489t105 -551q0 -284 -105 -550t-285 -489v-2z" />
<glyph unicode="*" horiz-adv-x="835" d="M76 1249l37 127l245 -92l-8 272h135l-8 -272l246 92l37 -127l-250 -75l170 -213l-113 -70l-149 217l-150 -217l-112 70l170 213z" />
<glyph unicode="+" horiz-adv-x="1228" d="M96 442v152h443v442h151v-442h443v-152h-443v-442h-151v442h-443z" />
<glyph unicode="," horiz-adv-x="532" d="M8 -283l205 537l186 -90l-258 -506z" />
<glyph unicode="-" horiz-adv-x="606" d="M61 473v184h484v-184h-484z" />
<glyph unicode="." horiz-adv-x="532" d="M131 119q0 55 40 95t95 40t95 -40t40 -95t-40 -94q-41 -39 -95 -39t-95 39q-40 39 -40 94z" />
<glyph unicode="/" horiz-adv-x="948" d="M41 -25l704 1606h162l-704 -1606h-162z" />
<glyph unicode="0" d="M88 485v576q0 185 118 321q120 138 326 138q207 0 327 -138q118 -136 118 -321v-576q0 -253 -124 -376q-125 -123 -321 -123t-320 123t-124 376zM272 426q0 -106 62 -194q62 -87 198 -87q138 0 199 87q62 88 62 194v641q0 109 -62 195t-199 86q-136 0 -198 -86t-62 -195 v-641z" />
<glyph unicode="1" horiz-adv-x="831" d="M92 1081v197l477 268v-1546h-184v1255z" />
<glyph unicode="2" d="M51 0l576 858q0 1 5 8t5 8q42 63 75 127q33 63 33 142q0 85 -62 144q-64 61 -153 61q-101 0 -176 -58q-74 -57 -84 -196h-184q4 190 124 308q119 118 306 118q163 0 289 -97q125 -96 125 -278q0 -73 -21 -138q-22 -69 -57 -120l-473 -715h539v-172h-867z" />
<glyph unicode="3" d="M20 246l158 88q46 -89 119 -139t172 -50q13 0 21 1q4 0 12 2t12 2q101 15 184 94q84 80 84 215q0 145 -94 236t-239 91q-19 0 -28 -1q-18 -2 -28 -3q-58 -11 -112 -34q-55 -24 -93 -62l-26 25l436 620h-506v172h834l-398 -577q190 0 314 -121q125 -122 125 -332 q0 -214 -145 -351q-143 -136 -339 -136q-147 0 -252 45q-104 44 -200 198q-1 3 -5 9q-1 1 -3 3.5t-3 4.5z" />
<glyph unicode="4" d="M25 373v82l759 1083h37v-1003h170v-162h-170v-373h-184v373h-612zM260 535h377v536h-4z" />
<glyph unicode="5" d="M31 248l153 100q47 -97 126 -149q82 -54 177 -54q11 0 35 2q13 1 35 7q88 22 160 99q71 75 71 218q0 139 -90 228q-91 89 -221 89q-84 0 -162 -30q-72 -28 -153 -101l-21 15v831h727v-172h-555v-422q43 19 70 25q33 8 63 12q22 2 32 3t32 1q30 0 55 -4q42 -7 58 -10 q129 -34 240 -150q110 -115 110 -311q0 -202 -135 -346q-134 -143 -336 -143q-175 0 -284 67t-187 195z" />
<glyph unicode="6" d="M68 444q0 17 2 49q1 23 6 46q15 77 55 158q39 80 121 208l395 615h221l-424 -627l5 -4q13 5 34 10q17 4 37 6t29 2h26q193 0 307 -138q113 -137 115 -304v-3v-3q0 -209 -133 -341q-134 -132 -321 -132q-198 0 -337 122q-138 122 -138 336zM252 444q0 -143 84 -221 t196 -78q123 0 202 82t79 217q0 137 -79 219t-202 82q-113 0 -196 -77q-84 -78 -84 -224z" />
<glyph unicode="7" d="M96 1331v172h873l-625 -1503h-197l558 1331h-609z" />
<glyph unicode="8" d="M68 426q0 140 70 243t186 150q-91 45 -143 126q-52 80 -52 181q0 19 1 29q2 20 3 31q18 123 115 229q96 105 284 105q189 0 285 -105q97 -106 115 -229q1 -11 3 -31q1 -10 1 -29q0 -101 -52 -181q-52 -81 -143 -126q116 -47 186 -150t70 -243q0 -174 -123 -307t-342 -133 t-342 133q-122 132 -122 307zM252 436q0 -132 83 -212q82 -79 197 -79q116 0 198 79q83 80 83 212q0 131 -83 209t-198 78q-114 0 -197 -78t-83 -209zM313 1130q0 -95 64 -159t155 -64q92 0 156 64t64 159q0 97 -64 163q-63 65 -156 65q-92 0 -155 -65q-64 -66 -64 -163z " />
<glyph unicode="9" d="M68 1038v3v3q0 208 134 342t320 134q199 0 337 -123t138 -338q0 -16 -2 -48q-1 -23 -6 -46q-15 -78 -55 -159q-39 -80 -121 -208l-395 -614h-221l424 626l-5 4q-13 -5 -34 -10q-18 -4 -37 -6q-20 -2 -29 -2h-27q-192 0 -306 138q-113 137 -115 304zM252 1059 q0 -136 79 -218q80 -83 201 -83q116 0 198 79q83 80 83 222q0 145 -83 222t-198 77q-122 0 -201 -82t-79 -217z" />
<glyph unicode=":" horiz-adv-x="532" d="M131 119q0 55 40 95t95 40t95 -40t40 -95t-40 -94q-41 -39 -95 -39t-95 39q-40 39 -40 94zM131 956q0 56 40 96t95 40t95 -40t40 -96q0 -55 -40 -95t-95 -40t-95 40t-40 95z" />
<glyph unicode=";" horiz-adv-x="532" d="M8 -283l205 537l186 -90l-258 -506zM131 956q0 56 40 96t95 40t95 -40t40 -96q0 -55 -40 -95t-95 -40t-95 40t-40 95z" />
<glyph unicode="&#x3c;" horiz-adv-x="1228" d="M96 449v139l1037 465v-152l-852 -383l852 -383v-151z" />
<glyph unicode="=" horiz-adv-x="1228" d="M96 233v152h1037v-152h-1037zM96 651v152h1037v-152h-1037z" />
<glyph unicode="&#x3e;" horiz-adv-x="1228" d="M96 -16v151l852 383l-852 383v152l1037 -465v-139z" />
<glyph unicode="?" d="M111 1128q12 189 123 309q110 119 309 119q191 0 301 -122t110 -287q0 -62 -13 -111q-14 -52 -50 -100q-18 -24 -40 -45q-28 -26 -54 -47l-121 -94q-15 -10 -27 -21q-16 -14 -22 -20q-52 -48 -70 -113q-18 -66 -18 -221h-185q0 194 34 295q35 103 130 186q3 2 8.5 6 t7.5 6t7 6.5t8 6.5l110 86q2 2 17 14q10 8 16 14q36 34 50 70q16 40 16 90q0 94 -62 162q-61 67 -157 67q-122 0 -177 -76t-55 -180h-196zM311 119q0 55 40 95t95 40q56 0 96 -40t40 -95t-40 -94t-96 -39q-54 0 -95 39q-40 39 -40 94z" />
<glyph unicode="@" horiz-adv-x="1638" d="M16 782q0 337 248 568t592 231q311 0 538 -184q228 -185 228 -477q0 -207 -105 -351q-104 -143 -233 -211q-46 -24 -101 -41q-46 -14 -93 -14q-56 0 -97 32t-47 99h-6q-44 -49 -116 -91q-70 -40 -148 -40q-144 0 -235 100t-91 240v16v19q12 206 152 381q140 174 362 174 q78 0 146 -38q67 -37 106 -128l39 131h162l-170 -563q-1 -1 -2 -4t-1 -4q-1 -3 -1 -9q-1 -4 -3 -10q0 -1 -1 -3.5t-2 -4.5q-1 -4 -7 -26t-8 -33q-6 -29 -6 -47q0 -25 10 -38q11 -14 33 -14q120 0 222 144t102 315q0 259 -184 407q-182 146 -443 146q-304 0 -496 -200 t-192 -482q0 -285 204 -477q205 -193 500 -193q154 0 300 67q144 66 239 179h152q-107 -172 -295 -272q-186 -99 -400 -99q-357 0 -605 233q-247 232 -247 572zM522 661q0 -91 53 -149q53 -57 142 -57q106 0 187 90q80 89 118 196q11 34 19 73q8 38 8 69q0 77 -55 138 q-54 60 -126 60q-123 0 -210 -95q-87 -94 -117 -208q-10 -30 -15 -59q-4 -25 -4 -58z" />
<glyph unicode="A" horiz-adv-x="1515" d="M39 0l633 1556h172l633 -1556h-215l-142 362h-725l-141 -362h-215zM463 535h590l-295 763z" />
<glyph unicode="B" horiz-adv-x="1290" d="M156 0v1556h405q119 0 198 -20q84 -21 152 -70q72 -51 120 -136q48 -86 48 -204q0 -107 -53 -186q-52 -77 -141 -121v-4q145 -21 224 -127t79 -248q0 -191 -136 -315q-137 -125 -333 -125h-563zM352 172h299q199 0 270 80q70 79 70 186q0 17 -1 25q-2 16 -3 26 q-15 81 -89 149q-75 69 -247 69h-299v-535zM352 879h246q122 0 203 65q82 66 82 178q0 60 -21 109q-22 51 -57 82q-40 35 -99 53q-60 18 -147 18h-207v-505z" />
<glyph unicode="C" horiz-adv-x="1517" d="M102 778q0 28 1 42l3 42q30 268 243 495q211 224 579 224q158 0 298 -56t236 -143l-133 -145q-82 76 -185 118q-104 42 -216 42q-245 0 -430 -175q-187 -176 -187 -444q0 -272 190 -445t427 -173q129 0 231 45t184 121l125 -142q-91 -84 -218 -138q-126 -54 -257 -66 q-10 0 -32 -2q-11 -1 -33 -1q-367 0 -579 224q-213 225 -243 493l-3 42q-1 14 -1 42z" />
<glyph unicode="D" horiz-adv-x="1517" d="M156 0v1556h512q285 0 517 -218q230 -217 230 -554q0 -334 -232 -559t-565 -225h-462zM352 184h264q262 0 426 176t164 435q0 250 -175 413q-176 164 -431 164h-248v-1188z" />
<glyph unicode="E" horiz-adv-x="1062" d="M156 0v1556h805v-184h-609v-493h609v-185h-609v-510h609v-184h-805z" />
<glyph unicode="F" horiz-adv-x="1062" d="M156 0v1556h805v-184h-609v-493h609v-185h-609v-694h-196z" />
<glyph unicode="G" horiz-adv-x="1855" d="M115 778q0 28 1 42l3 42q30 269 242 495q211 224 579 224q139 0 274 -46q140 -48 275 -165l-125 -147q-57 54 -120 89q-60 34 -132 56q-41 14 -87 22q-41 7 -85 7q-245 0 -430 -175q-186 -176 -186 -444q0 -272 189 -445q190 -173 427 -173q212 0 384 135t222 379h-569 v184h784q0 -419 -247 -650q-248 -231 -574 -231q-367 0 -579 224t-242 493l-3 42q-1 14 -1 42z" />
<glyph unicode="H" horiz-adv-x="1517" d="M156 0v1556h196v-667h813v667h197v-1556h-197v705h-813v-705h-196z" />
<glyph unicode="I" horiz-adv-x="491" d="M147 0v1556h197v-1556h-197z" />
<glyph unicode="J" horiz-adv-x="948" d="M84 -18v178h68q227 0 336 83q108 83 108 306v823h-490v184h687v-1050q0 -261 -163 -394q-165 -135 -431 -135q-49 0 -67 1q-10 1 -26.5 2.5t-21.5 1.5z" />
<glyph unicode="K" horiz-adv-x="1290" d="M156 0v1556h196v-712l635 712h252l-698 -759l714 -797h-282l-621 711v-711h-196z" />
<glyph unicode="L" horiz-adv-x="948" d="M156 0v1556h196v-1372h547v-184h-743z" />
<glyph unicode="M" horiz-adv-x="1970" d="M156 0v1556h196l633 -1175l633 1175h197v-1556h-197v1153h-4l-629 -1169l-629 1169h-4v-1153h-196z" />
<glyph unicode="N" horiz-adv-x="1515" d="M147 0v1556h185l835 -1204h4v1204h197v-1556h-184l-836 1204h-4v-1204h-197z" />
<glyph unicode="O" horiz-adv-x="1855" d="M102 778q0 28 1 42l3 42q30 268 243 495q211 224 579 224q367 0 578 -224q213 -227 243 -495l3 -42q1 -14 1 -42t-1 -42l-3 -42q-30 -268 -243 -493q-212 -224 -578 -224q-367 0 -579 224q-213 225 -243 493l-3 42q-1 14 -1 42zM311 778q0 -275 190 -447 q189 -171 427 -171t427 171t189 447q0 277 -189 448t-427 171t-427 -171q-190 -172 -190 -448z" />
<glyph unicode="P" horiz-adv-x="1175" d="M156 0v1556h430q248 0 387 -159q139 -158 139 -355q0 -195 -139 -353q-139 -159 -387 -159h-234v-530h-196zM352 702h193q175 0 273 86q97 85 97 254q0 171 -97 256q-98 86 -273 86h-193v-682z" />
<glyph unicode="Q" horiz-adv-x="1855" d="M102 778q0 28 1 42l3 42q30 268 243 495q211 224 579 224q367 0 578 -224q213 -227 243 -495l3 -42q1 -14 1 -42q0 -25 -1 -37l-3 -36q-11 -121 -60 -240q-47 -113 -137 -217l160 -160l-127 -127l-166 166q-97 -70 -219 -110q-121 -40 -272 -40q-367 0 -579 224 q-213 225 -243 493l-3 42q-1 14 -1 42zM311 778q0 -275 190 -447q189 -171 427 -171q96 0 183 28t165 80l-158 158l127 127l164 -162q64 79 99 176q36 99 36 211q0 277 -189 448t-427 171t-427 -171q-190 -172 -190 -448z" />
<glyph unicode="R" horiz-adv-x="1290" d="M156 0v1556h448q227 0 374 -122q148 -123 148 -349q0 -208 -141 -331q-140 -122 -332 -133l607 -621h-277l-631 664v-664h-196zM352 784q28 -2 52 -2h120q226 0 316 87t90 214q0 138 -88 220q-87 81 -242 81h-248v-600z" />
<glyph unicode="S" horiz-adv-x="1175" d="M84 436h197q12 -126 85 -208q72 -81 236 -81q128 0 210 72q83 72 83 174q0 90 -68 152q-67 61 -174 102l-198 78q-175 68 -260 172q-86 106 -86 254q0 202 143 315q145 115 336 115q194 0 330 -116q134 -115 151 -353h-184q-21 138 -98 218q-76 79 -201 79 q-133 0 -193 -56q-62 -58 -80 -124q-4 -17 -6 -37q-2 -24 -2 -35q0 -89 56 -146q57 -59 171 -102l197 -73q186 -69 275 -178q88 -107 88 -248q0 -188 -138 -311q-137 -122 -362 -122q-210 0 -350 113t-158 346z" />
<glyph unicode="T" horiz-adv-x="1060" d="M43 1372v184h975v-184h-389v-1372h-197v1372h-389z" />
<glyph unicode="U" horiz-adv-x="1515" d="M147 565v991h197v-933q0 -191 105 -327t309 -136t309 136q104 135 104 327v933h197v-991q0 -252 -172 -420q-173 -168 -442 -168q-265 0 -436 168t-171 420z" />
<glyph unicode="V" horiz-adv-x="1400" d="M43 1556h209l446 -1243h4l447 1243h209l-576 -1556h-164z" />
<glyph unicode="W" horiz-adv-x="2084" d="M35 1556h209l348 -1181h4l354 1181h185l354 -1185h4l348 1185h209l-479 -1556h-152l-375 1233h-4l-374 -1233h-152z" />
<glyph unicode="X" horiz-adv-x="1400" d="M41 0l539 793l-517 763h240l397 -602l398 602h239l-516 -763l539 -793h-244l-416 629l-415 -629h-244z" />
<glyph unicode="Y" horiz-adv-x="1290" d="M20 1556h230l395 -729l395 729h230l-527 -935v-621h-196v621z" />
<glyph unicode="Z" horiz-adv-x="1290" d="M51 0l852 1372h-776v184h1112l-852 -1372h811v-184h-1147z" />
<glyph unicode="[" horiz-adv-x="720" d="M238 -377v1933h403v-151h-219v-1630h219v-152h-403z" />
<glyph unicode="\" horiz-adv-x="948" d="M41 1581h162l704 -1606h-162z" />
<glyph unicode="]" horiz-adv-x="720" d="M80 -225h219v1630h-219v151h403v-1933h-403v152z" />
<glyph unicode="^" horiz-adv-x="1228" d="M109 635l436 868h139l436 -868h-162l-344 706l-344 -706h-161z" />
<glyph unicode="_" horiz-adv-x="1024" d="M0 -154h1024v-102h-1024v102z" />
<glyph unicode="`" horiz-adv-x="491" d="M-51 1487v16h248l165 -270h-145z" />
<glyph unicode="a" horiz-adv-x="1175" d="M66 358q0 146 119 256q120 111 343 111q27 0 40 -1q26 -2 38 -5q63 -7 131 -36q63 -27 121 -79v111q0 109 -78 156q-80 48 -172 55l-36 3q-12 1 -33 1q-41 0 -74 -4q-36 -4 -74 -15q-38 -8 -74 -22q-25 -10 -73 -33l-80 154q122 51 217 66q102 16 168 16q192 0 343 -86 q150 -86 150 -277v-729h-172v115q-71 -75 -151 -106q-84 -32 -189 -32q-194 0 -329 102t-135 279zM262 338q5 -74 72 -137q69 -64 229 -64q164 0 231 64q65 62 70 137v7v5v5v7q-5 76 -70 138q-66 63 -231 63q-161 0 -229 -63q-67 -63 -72 -138v-7v-5v-5v-7z" />
<glyph unicode="b" horiz-adv-x="1400" d="M154 0v1556h184v-657h4q63 91 170 141q109 51 223 52h5h8q224 0 390 -158q165 -158 165 -389q0 -252 -170 -410t-394 -158q-136 0 -237 53t-160 134h-4v-164h-184zM338 532q0 -159 113 -272t270 -113q144 0 265 106q120 105 120 290q0 16 -1 24q-1 12 -3 27 q-16 121 -117 223q-101 103 -270 103q-148 0 -263 -113q-114 -113 -114 -275z" />
<glyph unicode="c" horiz-adv-x="1062" d="M92 530q0 230 159 396t388 166q121 0 214 -40q96 -41 155 -87l3 -3l3 -4l-125 -145q-56 53 -117 80t-131 27q-136 0 -245 -100q-107 -98 -107 -296q0 -161 105 -269t265 -108q64 0 128 32q63 31 110 77l109 -135q-74 -75 -169 -109q-99 -35 -200 -35q-245 0 -395 166 q-150 167 -150 387z" />
<glyph unicode="d" horiz-adv-x="1400" d="M98 545q0 231 165 389q166 158 390 158h7h6q114 -1 223 -52q107 -50 170 -141h4v657h184v-1556h-184v164h-4q-56 -81 -158 -134q-101 -53 -239 -53q-224 0 -394 158t-170 410zM295 543q0 -185 120 -290q121 -106 265 -106q157 0 270 113t113 272q0 162 -113 275t-264 113 q-169 0 -270 -103q-101 -102 -117 -223q-1 -15 -3 -27q-1 -8 -1 -24z" />
<glyph unicode="e" horiz-adv-x="1290" d="M92 535q0 226 151 392q150 165 400 165q248 0 404 -173q155 -171 155 -456h-913q23 -137 125 -226q104 -90 258 -90q96 0 185 46q91 47 157 126l141 -112q-107 -119 -224 -174q-120 -56 -257 -56q-284 0 -433 173t-149 385zM289 614h704q-15 136 -111 220q-98 86 -241 86 q-156 0 -240 -84q-83 -83 -106 -185q-1 -7 -3 -19z" />
<glyph unicode="f" horiz-adv-x="606" d="M39 905v162h162v162q0 168 103 250t263 90v-185h-37q-70 0 -107 -49q-38 -50 -38 -121v-147h174v-162h-174v-905h-184v905h-162z" />
<glyph unicode="g" horiz-adv-x="1400" d="M84 543q0 231 165 390t390 159h7h5q114 -1 223 -52q107 -50 170 -141h5v168h184v-920q0 -292 -146 -444t-456 -152q-138 0 -265 55q-126 55 -233 175l148 115q37 -45 83 -83q43 -35 85 -57q45 -21 96 -32q49 -11 90 -11q215 0 314 102q100 103 100 277v76h-5 q-78 -92 -165 -134q-91 -44 -246 -44q-225 0 -361 134q-135 133 -174 296q-3 17 -10 61q-4 27 -4 62zM281 543q0 -185 120 -289q121 -105 265 -105q156 0 270 112q113 111 113 271q0 162 -113 275t-264 113q-170 0 -271 -103q-99 -101 -116 -223q-1 -15 -3 -27q-1 -8 -1 -24 z" />
<glyph unicode="h" horiz-adv-x="1175" d="M141 0v1556h185v-614h4q40 72 123 111t170 39q153 0 283 -93q128 -92 128 -309v-690h-184v621q0 121 -55 209q-56 90 -193 90q-130 0 -203 -84q-73 -83 -73 -236v-600h-185z" />
<glyph unicode="i" horiz-adv-x="491" d="M117 1405q0 53 38 91t91 38t91 -38t38 -91t-38 -91t-91 -38t-91 38t-38 91zM154 0v1067h184v-1067h-184z" />
<glyph unicode="j" horiz-adv-x="491" d="M20 -279q65 1 100 52q34 49 34 133v-2v1163h184v-1145q0 -180 -86 -269q-87 -90 -232 -102v170zM117 1405q0 53 38 91t91 38t91 -38t38 -91t-38 -91t-91 -38t-91 38t-38 91z" />
<glyph unicode="k" horiz-adv-x="1062" d="M154 0v1556h184v-954l450 465h242l-493 -494l503 -573h-258l-444 518v-518h-184z" />
<glyph unicode="l" horiz-adv-x="491" d="M129 319v1237h184v-1222q0 -90 37 -126q38 -36 82 -36h55v-172h-75q-128 0 -205 76q-78 77 -78 243z" />
<glyph unicode="m" horiz-adv-x="1855" d="M149 0v1067h185v-127h4q28 65 93 100q64 34 134 45q17 5 34 6q12 1 34 1q27 0 41 -1q20 -1 41 -6q64 -12 124 -51t109 -127q50 104 146 144q97 41 202 41q172 0 291 -104t119 -314v-674h-184v653q0 140 -69 203q-70 64 -165 64q-114 0 -191 -71t-77 -204v-645h-184v653 q0 140 -69 203q-70 64 -165 64q-114 0 -191 -71t-77 -204v-645h-185z" />
<glyph unicode="n" horiz-adv-x="1175" d="M141 0v1067h185v-125h4q40 72 123 111t170 39q153 0 283 -93q128 -92 128 -309v-690h-184v621q0 121 -55 209q-56 90 -193 90q-130 0 -203 -84q-73 -83 -73 -236v-600h-185z" />
<glyph unicode="o" horiz-adv-x="1400" d="M123 532q0 227 163 393q164 167 414 167q251 0 415 -167q163 -166 163 -393q0 -228 -158 -392q-157 -163 -420 -163q-259 0 -418 163q-159 164 -159 392zM319 532q0 -154 114 -269q114 -116 267 -116q154 0 268 116q113 114 113 269q0 167 -113 277q-114 111 -268 111 q-153 0 -267 -111t-114 -277z" />
<glyph unicode="p" horiz-adv-x="1400" d="M154 -451v1518h184v-168h4q63 91 170 141q109 51 223 52h5h8q224 0 390 -158q165 -158 165 -389q0 -252 -170 -410t-394 -158q-136 0 -237 53t-160 134h-4v-615h-184zM338 532q0 -159 113 -272t270 -113q144 0 265 106q120 105 120 290q0 16 -1 24q-1 12 -3 27 q-16 121 -117 223q-101 103 -270 103q-148 0 -263 -113q-114 -113 -114 -275z" />
<glyph unicode="q" horiz-adv-x="1400" d="M98 545q0 231 165 389q166 158 390 158h7h6q114 -1 223 -52q107 -50 170 -141h4v168h184v-1518h-184v615h-4q-56 -81 -158 -134q-101 -53 -239 -53q-224 0 -394 158t-170 410zM295 543q0 -185 120 -290q121 -106 265 -106q157 0 270 113t113 272q0 162 -113 275t-264 113 q-169 0 -270 -103q-101 -102 -117 -223q-1 -15 -3 -27q-1 -8 -1 -24z" />
<glyph unicode="r" horiz-adv-x="720" d="M154 0v1067h184v-152h4q2 2 4.5 7l3.5 7q7 12 8 13q62 104 137 127q74 23 183 23v-195q-16 3 -41 7q-21 3 -43 3q-114 0 -185 -78q-71 -79 -71 -223v-606h-184z" />
<glyph unicode="s" horiz-adv-x="948" d="M80 311h172q11 -86 74 -130q64 -44 147 -44q96 0 142 34t61 73q4 12 6 24q2 16 2 23q0 54 -40 88q-41 35 -148 63l-187 52q-119 33 -168 106t-49 168q0 134 97 228q99 96 284 96q190 0 273 -94q85 -95 92 -205q2 -10 2 -17v-16h-172q-10 89 -59 135q-48 45 -140 45 q-87 0 -140 -45t-53 -109q0 -43 28 -77t91 -52l250 -71q126 -37 175 -107q48 -69 48 -172q0 -163 -119 -246q-120 -84 -268 -84q-186 0 -292 92q-105 91 -109 242z" />
<glyph unicode="t" horiz-adv-x="606" d="M39 905v162h147v258h185v-258h170v-162h-170v-655q0 -43 18 -61q17 -17 72 -17h84v-170q-28 -2 -50 -2h-63q-140 0 -193 53t-53 176v676h-147z" />
<glyph unicode="u" horiz-adv-x="1175" d="M141 377v690h185v-621q0 -119 55 -208q56 -91 192 -91q129 0 203 84q74 85 74 236v600h184v-1067h-184v125h-4q-41 -72 -122 -110q-82 -38 -171 -38q-156 0 -284 92t-128 308z" />
<glyph unicode="v" horiz-adv-x="1175" d="M41 1067h209l338 -821l338 821h209l-461 -1067h-172z" />
<glyph unicode="w" horiz-adv-x="1744" d="M39 1067h197l268 -772h4l266 772h197l266 -772h4l268 772h197l-393 -1067h-152l-287 834h-4l-286 -834h-152z" />
<glyph unicode="x" horiz-adv-x="1175" d="M37 0l430 545l-414 522h246l289 -385l301 385h233l-413 -522l430 -545h-246l-305 397l-318 -397h-233z" />
<glyph unicode="y" horiz-adv-x="1175" d="M16 1067h209l342 -823l346 823h197l-655 -1518h-193l199 467z" />
<glyph unicode="z" horiz-adv-x="948" d="M43 0l557 905h-500v162h805l-553 -905h527v-162h-836z" />
<glyph unicode="{" horiz-adv-x="720" d="M133 526v127q84 0 126 83q42 82 42 184v372q0 123 65 193t140 71h3h3h137v-126h-69q-53 0 -74 -53t-21 -146v-348q0 -124 -48 -194t-120 -97v-4q72 -27 120 -98q48 -70 48 -193v-348q0 -93 21 -145t74 -52l69 -2v-127h-137q-2 2 -3 2h-3q-74 1 -140 72q-65 70 -65 192 v371q0 100 -42 183t-126 83z" />
<glyph unicode="|" horiz-adv-x="454" d="M152 -512v2048h151v-2048h-151z" />
<glyph unicode="}" horiz-adv-x="720" d="M72 -250h69q53 2 74 54t21 147v346q0 123 49 193q50 71 118 98v4q-69 27 -118 97t-49 194v348q0 93 -21 146t-74 53h-69v126h137h3h3q75 -1 140 -71t65 -193v-372q0 -102 43 -184q44 -83 125 -83v-127q-81 0 -125 -83q-43 -82 -43 -183v-373q0 -120 -65 -190 q-66 -71 -140 -72h-3h-3l-137 -2v127z" />
<glyph unicode="~" horiz-adv-x="1228" d="M141 483q44 83 107 130q61 46 149 46q27 0 50 -4q27 -5 53 -12q35 -11 68 -25q54 -23 67 -30l110 -49q52 -23 89 -23q43 0 87 35q43 35 93 117l73 -115q-45 -83 -105 -129q-61 -47 -151 -47q-27 0 -50 4q-24 4 -52 12q-38 12 -69 25t-66 31q-60 30 -110 50q-52 21 -89 21 q-44 0 -87 -34q-45 -36 -93 -117z" />
<glyph unicode="&#xa1;" horiz-adv-x="720" d="M225 987q0 55 40 95t95 40q56 0 96 -40t40 -95t-40 -95t-96 -40q-55 0 -95 40t-40 95zM262 -451v1182h197v-1182h-197z" />
<glyph unicode="&#xa2;" d="M113 530q0 231 158 396q159 166 388 166q27 0 39 -1q19 -2 35 -6l49 197h107l-53 -219q54 -16 103 -41q45 -23 79 -51q1 0 8 -5q1 -1 2.5 -2t3 -3t2.5 -3l-125 -145q-21 21 -38 34q-19 14 -40 25q-2 1 -9 5t-10 6q-3 1 -6 2.5t-6.5 3t-6.5 2.5l-181 -727q16 -4 33 -6 q22 -2 35 -2q66 0 128 31q63 31 110 77l108 -135q-74 -75 -169 -109q-96 -34 -200 -34q-13 0 -43 2q-22 2 -45 6l-51 -213h-106l57 235q-165 61 -260 203q-96 144 -96 311zM309 524q0 -111 56 -199q55 -87 149 -130l178 723q-6 2 -9 2h-11h-5h-5q-136 0 -245 -100 q-108 -99 -108 -296z" />
<glyph unicode="&#xa3;" d="M115 0q0 23 4 43q5 23 12 45q23 66 83 127q59 60 148 78q5 0 17 16q13 18 27 43q12 17 21 41q9 23 15 45q6 16 7 25q2 16 2 24q0 66 -26 126q-25 59 -69 108h-239v102h162q-35 41 -59 77q-23 35 -40 73q-12 31 -21 74q-7 35 -7 75q0 179 122 288q124 110 295 110 q186 0 287 -98t129 -277h-197q-12 83 -63 148t-152 65q-13 0 -19 -1t-17 -1q-70 -10 -130 -61q-59 -50 -59 -164q0 -62 38 -135q38 -74 114 -173h358v-102h-293q31 -46 50 -95q20 -51 20 -110q0 -19 -5 -46q-4 -20 -16 -46q-16 -37 -43 -74t-61 -67q59 0 101 -18 q45 -19 81 -40q2 -1 4 -2.5t3 -1.5l8 -4q46 -24 71 -34q38 -15 84 -15q35 0 74 18q37 17 82 56v-203q-47 -30 -91 -41q-47 -12 -89 -12q-59 0 -110 20q-61 24 -105 47l-103 46q-52 22 -96 22q-53 0 -89 -30t-48 -91h-172z" />
<glyph unicode="&#xa4;" d="M33 344l108 109q-47 63 -74 138q-28 79 -28 161q0 81 28 160q27 76 74 137l-108 110l88 90l112 -108q61 50 138 77q78 27 161 27q84 0 162 -27q75 -26 137 -77l113 108l88 -90l-108 -110q47 -61 74 -137q28 -79 28 -160q0 -82 -28 -161q-27 -75 -74 -138l108 -109 l-88 -90l-113 108q-60 -49 -137 -76q-81 -28 -162 -28q-80 0 -161 28q-79 27 -138 76l-112 -108zM190 752q0 -143 100 -243q99 -99 242 -99q144 0 243 99t99 243q0 143 -99 242q-100 100 -243 100q-142 0 -242 -100t-100 -242z" />
<glyph unicode="&#xa5;" d="M43 1503h197l292 -680l293 680h197l-317 -692h274v-115h-326l-35 -75v-138h361v-114h-361v-369h-172v369h-360v114h360v138l-34 75h-326v115h274z" />
<glyph unicode="&#xa6;" horiz-adv-x="454" d="M152 -358v716h151v-716h-151zM152 666v716h151v-716h-151z" />
<glyph unicode="&#xa7;" d="M106 582q0 112 51 197q50 84 154 143q-89 41 -139 116q-51 76 -51 176q0 167 121 267t295 100q170 0 283 -98q115 -99 122 -299h-184q0 106 -60 171q-60 64 -180 64q-86 0 -149 -54q-64 -55 -64 -126q0 -93 44 -142t138 -77l203 -62q149 -46 208 -143q60 -99 60 -221 q0 -118 -57 -204q-57 -85 -160 -132q89 -39 147 -110q56 -69 56 -183q0 -161 -121 -260q-120 -98 -282 -98q-191 0 -286 86q-96 87 -124 188q-8 31 -11 56q-3 27 -3 53v-2h184q1 -101 63 -155q59 -51 132 -62q13 0 19 -1t20 -1q93 0 153 51t60 141q0 66 -38 113 q-37 46 -151 84l-153 51q-138 47 -219 137t-81 236zM303 590q0 -117 68 -170q70 -54 147 -60h8h9h13q5 0 13 2q74 6 138 61q63 54 63 167q0 117 -65 171t-144 60h-9h-12h-11h-9q-80 -6 -144 -60q-65 -54 -65 -171z" />
<glyph unicode="&#xa8;" horiz-adv-x="491" d="M-74 1362q2 54 39 91q38 38 90 38q53 0 91 -38t38 -91t-38 -91t-91 -38q-52 0 -90 38q-37 37 -37 91h-2zM307 1362q0 53 38 91t91 38t91 -38t38 -91t-38 -91t-91 -38t-91 38t-38 91z" />
<glyph unicode="&#xa9;" horiz-adv-x="1638" d="M16 778q0 332 236 568q235 235 567 235t567 -235q236 -236 236 -568t-236 -566q-237 -235 -567 -235t-567 235q-236 234 -236 566zM156 778q0 -275 194 -469t469 -194t469 194q195 195 195 469t-195 469t-469 195t-469 -195q-194 -194 -194 -469zM373 782q0 214 126 351 t343 137q151 0 265 -84q113 -84 136 -246h-145q-18 85 -86 144t-168 59q-150 0 -230 -105q-79 -104 -79 -254q0 -144 85 -256t228 -112q104 0 170 62q68 64 80 151h145q-30 -156 -139 -249q-107 -91 -256 -91q-217 0 -346 142q-129 143 -129 351z" />
<glyph unicode="&#xaa;" horiz-adv-x="763" d="M31 1081q0 94 77 159t218 65q23 0 47 -3q18 -2 49 -12q30 -8 56 -21q27 -13 54 -36v43q0 64 -46 91q-49 28 -101 34q-12 1 -27 3q-10 1 -26 1q-47 0 -91 -10q-47 -11 -96 -33l-51 108q82 31 142 40q70 10 108 10q127 0 228 -52q100 -52 100 -165v-445h-119v70 q-45 -46 -98 -65q-51 -19 -123 -19q-126 0 -213 62q-88 63 -88 175zM170 1063q0 -4 2 -6q6 -38 48 -68q43 -31 132 -31t132 31q42 30 48 68q3 3 3 6v8q0 8 -1 12q0 1 -1.5 6.5t-2.5 8.5q-11 35 -52 63q-43 29 -128 29q-81 0 -124 -29q-41 -28 -52 -63q0 -2 -1 -5t-1.5 -5.5 t-0.5 -4.5q-1 -4 -1 -12v-8z" />
<glyph unicode="&#xab;" d="M139 565l219 393h172l-229 -393l229 -393h-172zM553 565l219 393h172l-229 -393l229 -393h-172z" />
<glyph unicode="&#xac;" horiz-adv-x="1228" d="M96 651v152h1037v-582h-152v430h-885z" />
<glyph unicode="&#xad;" horiz-adv-x="1024" />
<glyph unicode="&#xae;" horiz-adv-x="1638" d="M16 778q0 332 236 568q235 235 567 235t567 -235q236 -236 236 -568t-236 -566q-237 -235 -567 -235t-567 235q-236 234 -236 566zM156 778q0 -275 194 -469t469 -194t469 194q195 195 195 469t-195 469t-469 195t-469 -195q-194 -194 -194 -469zM512 315v926h350 q164 0 245 -63t81 -201q0 -125 -68 -182q-67 -57 -170 -72l264 -408h-174l-241 404h-148v-404h-139zM651 834h189q109 0 158 34q51 36 51 111q0 77 -51 113q-49 34 -158 34h-189v-292z" />
<glyph unicode="&#xaf;" horiz-adv-x="532" />
<glyph unicode="&#xb0;" horiz-adv-x="819" d="M117 1227q0 121 86 207t207 86q120 0 206 -86t86 -207t-86 -207t-206 -86q-121 0 -207 86t-86 207zM219 1227q0 -78 56 -134q57 -57 135 -57q77 0 134 57q56 56 56 134t-56 134t-134 56q-79 0 -135 -56t-56 -134z" />
<glyph unicode="&#xb1;" horiz-adv-x="1228" d="M96 0v152h1037v-152h-1037zM96 555v152h443v329h151v-329h443v-152h-443v-330h-151v330h-443z" />
<glyph unicode="&#xb2;" horiz-adv-x="690" d="M35 608l338 486q43 60 62 100q22 45 26 82v7v5q0 36 -32 63q-32 28 -71 29h-3h-3q-51 0 -93 -27t-48 -102h-152q5 125 81 197t202 72q104 0 188 -58q82 -57 82 -168v-7v-7q-2 -40 -21 -83q-20 -44 -67 -114l-225 -335h299v-140h-563z" />
<glyph unicode="&#xb3;" horiz-adv-x="690" d="M12 766l103 76q29 -54 78 -81q47 -26 110 -26q11 0 16 1t17 1q58 10 108 51t50 105q0 81 -57 133q-58 53 -146 53q-12 0 -18 -1t-17 -1q-39 -6 -75 -21t-60 -36l-23 24l277 361h-316v115h553l-266 -338q114 0 201 -73q86 -72 86 -206q0 -129 -96 -212q-97 -83 -224 -83 q-93 0 -161 27t-129 115q-1 2 -3 4.5t-3 3.5q-5 7 -5 8z" />
<glyph unicode="&#xb4;" horiz-adv-x="491" d="M129 1233l166 270h248v-16l-269 -254h-145z" />
<glyph unicode="&#xb5;" horiz-adv-x="1175" d="M141 -451v1518h185v-621q0 -119 55 -208q56 -91 192 -91q129 0 203 84q74 85 74 236v600h184v-1067h-184v125h-4q-41 -72 -122 -110q-82 -38 -171 -38q-77 0 -136 24t-87 73h-4v-525h-185z" />
<glyph unicode="&#xb6;" horiz-adv-x="1228" d="M41 1167q0 203 129 296t344 93h510v-1927h-152v1801h-243v-1801h-152v1162q-193 0 -315 108q-121 108 -121 268z" />
<glyph unicode="&#xb7;" horiz-adv-x="532" />
<glyph unicode="&#xb8;" horiz-adv-x="491" d="M6 -303q103 27 167 85q63 58 103 167l179 -66q-57 -136 -154 -200q-98 -64 -242 -82v-2z" />
<glyph unicode="&#xb9;" horiz-adv-x="540" d="M49 1217v139l328 164v-912h-152v711z" />
<glyph unicode="&#xba;" horiz-adv-x="909" d="M70 1180q0 137 107 238q108 102 278 102q169 0 277 -102t108 -238q0 -138 -105 -237t-280 -99q-176 0 -281 99q-104 98 -104 237zM221 1178q0 -87 67 -154q66 -66 167 -66q102 0 168 66q65 65 65 154q0 93 -70 154t-163 61q-94 0 -164 -62t-70 -153z" />
<glyph unicode="&#xbb;" d="M121 172l229 393l-229 393h172l219 -393l-219 -393h-172zM535 172l229 393l-229 393h172l219 -393l-219 -393h-172z" />
<glyph unicode="&#xbc;" horiz-adv-x="1593" d="M80 1217v139l328 164v-912h-152v711zM233 -16l857 1536h161l-856 -1536h-162zM842 215v57l493 639h37v-581h98v-115h-98v-215h-139v215h-391zM1014 330h219v297h-4z" />
<glyph unicode="&#xbd;" horiz-adv-x="1593" d="M49 1217v139l328 164v-912h-152v711zM180 -16l856 1536h162l-856 -1536h-162zM893 0l338 485q41 58 62 101q22 45 26 82v7v5q0 35 -32 62q-33 29 -70 30h-4h-3q-49 0 -93 -28q-42 -27 -48 -101h-151q5 126 80 197t202 71q106 0 189 -57q81 -56 81 -168v-7v-7 q-2 -40 -21 -83q-20 -44 -67 -114l-225 -336h299v-139h-563z" />
<glyph unicode="&#xbe;" horiz-adv-x="1593" d="M49 766l103 76q30 -55 77 -81t111 -26q11 0 16 1t17 1q58 10 108 51q49 40 49 105q0 81 -56 133q-58 53 -146 53q-12 0 -18 -1t-17 -1q-39 -6 -75 -21t-60 -36l-23 24l277 361h-316v115h553l-266 -338q114 0 201 -73q86 -72 86 -206q0 -129 -97 -212t-223 -83 q-94 0 -162 27t-129 115q0 1 -5 8t-5 8zM305 -16l856 1536h162l-856 -1536h-162zM842 215v57l493 639h37v-581h98v-115h-98v-215h-139v215h-391zM1014 330h219v297h-4z" />
<glyph unicode="&#xbf;" d="M111 -39q0 60 13 109q14 52 50 100q18 24 40 45q28 26 54 47l121 94q15 10 27 21q16 14 22 20q52 48 70 113q18 66 18 221h185q0 -194 -34 -295q-35 -103 -130 -186q-2 -2 -7.5 -6t-8.5 -6q-2 -2 -7 -6.5t-8 -6.5l-110 -86q-2 -2 -17 -14q-10 -8 -16 -14q-36 -34 -50 -70 q-16 -40 -16 -88q0 -94 62 -162q61 -67 157 -67q121 0 176 76q56 77 56 180l196 -3q-12 -185 -124 -306q-111 -120 -308 -120q-190 0 -301 123q-110 122 -110 287zM483 987q0 55 40 95t95 40q56 0 96 -40t40 -95t-40 -95t-96 -40q-55 0 -95 40t-40 95z" />
<glyph unicode="&#xc0;" horiz-adv-x="1515" d="M39 0l633 1556h172l633 -1556h-215l-142 362h-725l-141 -362h-215zM461 1886v17h248l165 -271h-145zM463 535h590l-295 763z" />
<glyph unicode="&#xc1;" horiz-adv-x="1515" d="M39 0l633 1556h172l633 -1556h-215l-142 362h-725l-141 -362h-215zM463 535h590l-295 763zM641 1632l166 271h248v-17l-269 -254h-145z" />
<glyph unicode="&#xc2;" horiz-adv-x="1515" d="M39 0l633 1556h172l633 -1556h-215l-142 362h-725l-141 -362h-215zM451 1632l196 271h221l197 -271h-152l-155 156l-156 -156h-151zM463 535h590l-295 763z" />
<glyph unicode="&#xc3;" horiz-adv-x="1515" d="M39 0l633 1556h172l633 -1556h-215l-142 362h-725l-141 -362h-215zM444 1651q4 94 42 160q38 67 126 67q14 0 20 -1q12 -2 19 -3q35 -5 66 -16q12 -4 61 -25l72 -33q31 -14 53 -14q5 0 15 2q9 2 16 6q18 8 34 28q14 19 19 52h84q-1 -94 -41 -161q-39 -66 -127 -66 q-13 0 -19 1t-20 3q-34 5 -65 16q-35 13 -62 27l-70 30q-31 15 -55 15q-4 0 -14 -2q-9 -2 -16 -6q-18 -8 -34 -28t-20 -52h-84zM463 535h590l-295 763z" />
<glyph unicode="&#xc4;" horiz-adv-x="1515" d="M39 0l633 1556h172l633 -1556h-215l-142 362h-725l-141 -362h-215zM438 1782q0 53 38 91t91 38t91 -38t38 -91t-38 -91t-91 -38t-91 38t-38 91zM463 535h590l-295 763zM819 1782q0 53 38 91t91 38t91 -38t38 -91t-38 -91t-91 -38t-91 38t-38 91z" />
<glyph unicode="&#xc5;" horiz-adv-x="1515" d="M39 0l633 1556h172l633 -1556h-215l-142 362h-725l-141 -362h-215zM463 535h590l-295 763zM567 1786q0 77 57 134q56 56 134 56t134 -56t56 -134t-56 -134q-57 -57 -134 -57t-134 57t-57 134zM653 1786q0 -43 31 -74t74 -31q42 0 73 31t31 74t-31 74q-30 30 -73 30 q-44 0 -74 -30q-31 -31 -31 -74z" />
<glyph unicode="&#xc6;" horiz-adv-x="1972" d="M39 0l913 1556h918v-184h-594v-493h594v-185h-594v-510h594v-184h-791v362h-612l-207 -362h-221zM565 535h514v882h-4z" />
<glyph unicode="&#xc7;" horiz-adv-x="1517" d="M102 778q0 28 1 42l3 42q30 268 243 495q211 224 579 224q158 0 298 -56t236 -143l-133 -145q-82 76 -185 118q-104 42 -216 42q-245 0 -430 -175q-187 -176 -187 -444q0 -272 190 -445t427 -173q129 0 231 45t184 121l125 -142q-91 -84 -218 -138q-126 -54 -257 -66 q-10 0 -32 -2q-11 -1 -33 -1q-367 0 -579 224q-213 225 -243 493l-3 42q-1 14 -1 42zM627 -303q103 27 167 85q63 58 103 167l178 -66q-57 -137 -153 -200q-98 -64 -242 -82v-2z" />
<glyph unicode="&#xc8;" horiz-adv-x="1062" d="M156 0v1556h805v-184h-609v-493h609v-185h-609v-510h609v-184h-805zM272 1886v17h248l166 -271h-145z" />
<glyph unicode="&#xc9;" horiz-adv-x="1062" d="M156 0v1556h805v-184h-609v-493h609v-185h-609v-510h609v-184h-805zM453 1632l165 271h248v-17l-268 -254h-145z" />
<glyph unicode="&#xca;" horiz-adv-x="1062" d="M156 0v1556h805v-184h-609v-493h609v-185h-609v-510h609v-184h-805zM262 1632l197 271h221l197 -271h-152l-156 156l-155 -156h-152z" />
<glyph unicode="&#xcb;" horiz-adv-x="1062" d="M156 0v1556h805v-184h-609v-493h609v-185h-609v-510h609v-184h-805zM250 1782q0 53 38 91t91 38t91 -38t38 -91t-38 -91t-91 -38t-91 38t-38 91zM631 1782q0 53 38 91t91 38t91 -38t38 -91t-38 -91t-91 -38t-91 38t-38 91z" />
<glyph unicode="&#xcc;" horiz-adv-x="491" d="M-51 1886v17h248l165 -271h-145zM147 0v1556h197v-1556h-197z" />
<glyph unicode="&#xcd;" horiz-adv-x="491" d="M129 1632l166 271h248v-17l-269 -254h-145zM147 0v1556h197v-1556h-197z" />
<glyph unicode="&#xce;" horiz-adv-x="491" d="M-61 1632l196 271h221l197 -271h-152l-155 156l-156 -156h-151zM147 0v1556h197v-1556h-197z" />
<glyph unicode="&#xcf;" horiz-adv-x="491" d="M-74 1782q2 54 39 91q38 38 90 38q53 0 91 -38t38 -91t-38 -91t-91 -38q-52 0 -90 38q-37 37 -37 91h-2zM147 0v1556h197v-1556h-197zM307 1782q0 53 38 91t91 38t91 -38t38 -91t-38 -91t-91 -38t-91 38t-38 91z" />
<glyph unicode="&#xd0;" horiz-adv-x="1517" d="M41 707v172h115v677h512q285 0 517 -218q230 -217 230 -554q0 -334 -232 -559t-565 -225h-462v707h-115zM352 184h264q262 0 426 176t164 435q0 250 -175 413q-176 164 -431 164h-248v-493h353v-172h-353v-523z" />
<glyph unicode="&#xd1;" horiz-adv-x="1515" d="M147 0v1556h185l835 -1204h4v1204h197v-1556h-184l-836 1204h-4v-1204h-197zM444 1651q4 94 42 160q38 67 126 67q14 0 20 -1q12 -2 19 -3q35 -5 66 -16q12 -4 61 -25l72 -33q31 -14 53 -14q5 0 15 2q9 2 16 6q18 8 34 28q14 19 19 52h84q-1 -94 -41 -161 q-39 -66 -127 -66q-13 0 -19 1t-20 3q-34 5 -65 16q-35 13 -62 27l-70 30q-31 15 -55 15q-4 0 -14 -2q-9 -2 -16 -6q-18 -8 -34 -28t-20 -52h-84z" />
<glyph unicode="&#xd2;" horiz-adv-x="532" />
<glyph unicode="&#xd3;" horiz-adv-x="1855" d="M102 778q0 28 1 42l3 42q30 268 243 495q211 224 579 224q367 0 578 -224q213 -227 243 -495l3 -42q1 -14 1 -42t-1 -42l-3 -42q-30 -268 -243 -493q-212 -224 -578 -224q-367 0 -579 224q-213 225 -243 493l-3 42q-1 14 -1 42zM311 778q0 -275 190 -447 q189 -171 427 -171t427 171t189 447q0 277 -189 448t-427 171t-427 -171q-190 -172 -190 -448zM811 1632l166 271h248v-17l-269 -254h-145z" />
<glyph unicode="&#xd4;" horiz-adv-x="1855" d="M102 778q0 28 1 42l3 42q30 268 243 495q211 224 579 224q367 0 578 -224q213 -227 243 -495l3 -42q1 -14 1 -42t-1 -42l-3 -42q-30 -268 -243 -493q-212 -224 -578 -224q-367 0 -579 224q-213 225 -243 493l-3 42q-1 14 -1 42zM311 778q0 -275 190 -447 q189 -171 427 -171t427 171t189 447q0 277 -189 448t-427 171t-427 -171q-190 -172 -190 -448zM621 1632l196 271h221l197 -271h-152l-155 156l-156 -156h-151z" />
<glyph unicode="&#xd5;" horiz-adv-x="1855" d="M102 778q0 28 1 42l3 42q30 268 243 495q211 224 579 224q367 0 578 -224q213 -227 243 -495l3 -42q1 -14 1 -42t-1 -42l-3 -42q-30 -268 -243 -493q-212 -224 -578 -224q-367 0 -579 224q-213 225 -243 493l-3 42q-1 14 -1 42zM311 778q0 -275 190 -447 q189 -171 427 -171t427 171t189 447q0 277 -189 448t-427 171t-427 -171q-190 -172 -190 -448zM614 1651q4 94 42 160q38 67 126 67q14 0 20 -1q12 -2 19 -3q35 -5 66 -16q12 -4 61 -25l72 -33q31 -14 53 -14q4 0 14 2t17 6q18 8 34 28q14 19 19 52h84q-1 -94 -41 -161 q-39 -66 -127 -66q-13 0 -19 1t-20 3q-34 5 -65 16q-35 13 -62 27l-70 30q-32 15 -55 15q-4 0 -14 -2q-9 -2 -16 -6q-18 -8 -34 -28t-20 -52h-84z" />
<glyph unicode="&#xd6;" horiz-adv-x="1855" d="M102 778q0 28 1 42l3 42q30 268 243 495q211 224 579 224q367 0 578 -224q213 -227 243 -495l3 -42q1 -14 1 -42t-1 -42l-3 -42q-30 -268 -243 -493q-212 -224 -578 -224q-367 0 -579 224q-213 225 -243 493l-3 42q-1 14 -1 42zM311 778q0 -275 190 -447 q189 -171 427 -171t427 171t189 447q0 277 -189 448t-427 171t-427 -171q-190 -172 -190 -448zM608 1782q0 53 38 91t91 38t91 -38t38 -91t-38 -91t-91 -38t-91 38t-38 91zM989 1782q0 53 38 91t91 38t91 -38t38 -91t-38 -91t-91 -38t-91 38t-38 91z" />
<glyph unicode="&#xd7;" horiz-adv-x="1228" d="M145 154l365 364l-365 365l105 104l364 -364l365 364l104 -104l-364 -365l364 -364l-104 -105l-365 365l-364 -365z" />
<glyph unicode="&#xd8;" horiz-adv-x="1855" d="M102 778q0 28 1 42l3 42q30 268 243 495q211 224 579 224q156 0 284 -45q127 -45 226 -123l190 205l86 -80l-188 -203q98 -99 156 -231q57 -129 69 -262q0 -22 1 -32t1 -32q0 -28 -1 -42l-3 -42q-30 -268 -243 -493q-212 -224 -578 -224q-151 0 -286 45q-132 44 -226 119 l-189 -202l-86 79l189 203q-99 102 -154 224q-58 129 -70 255q-1 14 -3 40q-1 13 -1 38zM311 778q0 -122 42 -226q40 -99 112 -185l840 903q-81 60 -179 94q-96 33 -198 33q-238 0 -427 -171q-190 -172 -190 -448zM551 287q79 -58 179 -93q96 -34 198 -34q238 0 427 171 t189 447q0 125 -42 230q-41 103 -111 182z" />
<glyph unicode="&#xd9;" horiz-adv-x="1515" d="M147 565v991h197v-933q0 -191 105 -327t309 -136t309 136q104 135 104 327v933h197v-991q0 -252 -172 -420q-173 -168 -442 -168q-265 0 -436 168t-171 420zM461 1886v17h248l165 -271h-145z" />
<glyph unicode="&#xda;" horiz-adv-x="1515" d="M147 565v991h197v-933q0 -191 105 -327t309 -136t309 136q104 135 104 327v933h197v-991q0 -252 -172 -420q-173 -168 -442 -168q-265 0 -436 168t-171 420zM641 1632l166 271h248v-17l-269 -254h-145z" />
<glyph unicode="&#xdb;" horiz-adv-x="1515" d="M147 565v991h197v-933q0 -191 105 -327t309 -136t309 136q104 135 104 327v933h197v-991q0 -252 -172 -420q-173 -168 -442 -168q-265 0 -436 168t-171 420zM451 1632l196 271h221l197 -271h-152l-155 156l-156 -156h-151z" />
<glyph unicode="&#xdc;" horiz-adv-x="1515" d="M147 565v991h197v-933q0 -191 105 -327t309 -136t309 136q104 135 104 327v933h197v-991q0 -252 -172 -420q-173 -168 -442 -168q-265 0 -436 168t-171 420zM438 1782q0 53 38 91t91 38t91 -38t38 -91t-38 -91t-91 -38t-91 38t-38 91zM819 1782q0 53 38 91t91 38t91 -38 t38 -91t-38 -91t-91 -38t-91 38t-38 91z" />
<glyph unicode="&#xdd;" horiz-adv-x="532" />
<glyph unicode="&#xde;" horiz-adv-x="1175" d="M156 0v1556h196v-227h234q247 0 387 -160q139 -158 139 -354q0 -195 -139 -353q-139 -159 -387 -159h-234v-303h-196zM352 475h193q175 0 273 86q97 85 97 254q0 171 -97 256q-98 86 -273 86h-193v-682z" />
<glyph unicode="&#xdf;" horiz-adv-x="1290" d="M53 905v162h148v92q0 171 107 290q108 120 315 120q155 0 250 -81q98 -84 131 -179q10 -28 15 -58q5 -32 5 -55q0 -100 -42 -174q-43 -75 -120 -115v-4q153 -21 244 -136q92 -116 92 -275q0 -224 -139 -363t-363 -139q-44 0 -94 6q-49 6 -100 24l45 166q33 -20 76 -28 t82 -8h3h3q107 1 199 86q91 84 91 233q0 148 -103 236t-261 88h-45v161h49q84 0 141 62q58 63 58 162q0 102 -63 160q-64 59 -165 59q-100 0 -163 -66q-64 -67 -64 -217v-1114h-184v905h-148z" />
<glyph unicode="&#xe0;" horiz-adv-x="1175" d="M66 358q0 146 119 256q120 111 343 111q27 0 40 -1q26 -2 38 -5q63 -7 131 -36q63 -27 121 -79v111q0 109 -78 156q-80 48 -172 55l-36 3q-12 1 -33 1q-41 0 -74 -4q-36 -4 -74 -15q-38 -8 -74 -22q-25 -10 -73 -33l-80 154q122 51 217 66q102 16 168 16q192 0 343 -86 q150 -86 150 -277v-729h-172v115q-71 -75 -151 -106q-84 -32 -189 -32q-194 0 -329 102t-135 279zM262 338q5 -74 72 -137q69 -64 229 -64q164 0 231 64q65 62 70 137v7v5v5v7q-5 76 -70 138q-66 63 -231 63q-161 0 -229 -63q-67 -63 -72 -138v-7v-5v-5v-7zM303 1487v16h248 l166 -270h-146z" />
<glyph unicode="&#xe1;" horiz-adv-x="1175" d="M66 358q0 146 119 256q120 111 343 111q27 0 40 -1q26 -2 38 -5q63 -7 131 -36q63 -27 121 -79v111q0 109 -78 156q-80 48 -172 55l-36 3q-12 1 -33 1q-41 0 -74 -4q-36 -4 -74 -15q-38 -8 -74 -22q-25 -10 -73 -33l-80 154q122 51 217 66q102 16 168 16q192 0 343 -86 q150 -86 150 -277v-729h-172v115q-71 -75 -151 -106q-84 -32 -189 -32q-194 0 -329 102t-135 279zM262 338q5 -74 72 -137q69 -64 229 -64q164 0 231 64q65 62 70 137v7v5v5v7q-5 76 -70 138q-66 63 -231 63q-161 0 -229 -63q-67 -63 -72 -138v-7v-5v-5v-7zM483 1233 l166 270h248v-16l-268 -254h-146z" />
<glyph unicode="&#xe2;" horiz-adv-x="1175" d="M66 358q0 146 119 256q120 111 343 111q27 0 40 -1q26 -2 38 -5q63 -7 131 -36q63 -27 121 -79v111q0 109 -78 156q-80 48 -172 55l-36 3q-12 1 -33 1q-41 0 -74 -4q-36 -4 -74 -15q-38 -8 -74 -22q-25 -10 -73 -33l-80 154q122 51 217 66q102 16 168 16q192 0 343 -86 q150 -86 150 -277v-729h-172v115q-71 -75 -151 -106q-84 -32 -189 -32q-194 0 -329 102t-135 279zM262 338q5 -74 72 -137q69 -64 229 -64q164 0 231 64q65 62 70 137v7v5v5v7q-5 76 -70 138q-66 63 -231 63q-161 0 -229 -63q-67 -63 -72 -138v-7v-5v-5v-7zM293 1233 l196 270h222l196 -270h-151l-156 156l-156 -156h-151z" />
<glyph unicode="&#xe3;" horiz-adv-x="1175" d="M66 358q0 146 119 256q120 111 343 111q27 0 40 -1q26 -2 38 -5q63 -7 131 -36q63 -27 121 -79v111q0 109 -78 156q-80 48 -172 55l-36 3q-12 1 -33 1q-41 0 -74 -4q-36 -4 -74 -15q-38 -8 -74 -22q-25 -10 -73 -33l-80 154q122 51 217 66q102 16 168 16q192 0 343 -86 q150 -86 150 -277v-729h-172v115q-71 -75 -151 -106q-84 -32 -189 -32q-194 0 -329 102t-135 279zM262 338q5 -74 72 -137q69 -64 229 -64q164 0 231 64q65 62 70 137v7v5v5v7q-5 76 -70 138q-66 63 -231 63q-161 0 -229 -63q-67 -63 -72 -138v-7v-5v-5v-7zM287 1251 q5 95 42 161q38 67 126 67q13 0 19 -1t20 -3q29 -4 65 -17q37 -13 62 -24l71 -33q33 -15 53 -15l15 3q9 2 16 6q19 8 34 27q14 19 19 53h84q-1 -94 -41 -161t-127 -67q-13 0 -19 1q-12 2 -19 3q-31 4 -66 17q-38 14 -61 26l-71 31q-29 14 -54 14q-5 0 -15 -2q-9 -2 -16 -6 q-19 -8 -34 -27q-14 -19 -19 -53h-84z" />
<glyph unicode="&#xe4;" horiz-adv-x="1175" d="M66 358q0 146 119 256q120 111 343 111q27 0 40 -1q26 -2 38 -5q63 -7 131 -36q63 -27 121 -79v111q0 109 -78 156q-80 48 -172 55l-36 3q-12 1 -33 1q-41 0 -74 -4q-36 -4 -74 -15q-38 -8 -74 -22q-25 -10 -73 -33l-80 154q122 51 217 66q102 16 168 16q192 0 343 -86 q150 -86 150 -277v-729h-172v115q-71 -75 -151 -106q-84 -32 -189 -32q-194 0 -329 102t-135 279zM262 338q5 -74 72 -137q69 -64 229 -64q164 0 231 64q65 62 70 137v7v5v5v7q-5 76 -70 138q-66 63 -231 63q-161 0 -229 -63q-67 -63 -72 -138v-7v-5v-5v-7zM281 1362 q0 54 37 91q38 38 92 38q53 0 91 -38t38 -91t-38 -91t-91 -38q-54 0 -92 38q-37 37 -37 91zM662 1362q0 54 37 91q38 38 92 38q53 0 91 -38t38 -91t-38 -91t-91 -38q-54 0 -92 38q-37 37 -37 91z" />
<glyph unicode="&#xe5;" horiz-adv-x="1175" d="M66 358q0 146 119 256q120 111 343 111q27 0 40 -1q26 -2 38 -5q63 -7 131 -36q63 -27 121 -79v111q0 109 -78 156q-80 48 -172 55l-36 3q-12 1 -33 1q-41 0 -74 -4q-36 -4 -74 -15q-38 -8 -74 -22q-25 -10 -73 -33l-80 154q122 51 217 66q102 16 168 16q192 0 343 -86 q150 -86 150 -277v-729h-172v115q-71 -75 -151 -106q-84 -32 -189 -32q-194 0 -329 102t-135 279zM262 338q5 -74 72 -137q69 -64 229 -64q164 0 231 64q65 62 70 137v7v5v5v7q-5 76 -70 138q-66 63 -231 63q-161 0 -229 -63q-67 -63 -72 -138v-7v-5v-5v-7zM410 1378 q0 78 56 134q57 57 134 57t134 -57t57 -134t-57 -134q-56 -56 -134 -56t-134 56t-56 134zM496 1378q0 -43 30 -73q31 -31 74 -31t74 31t31 73q0 43 -31 74t-74 31t-74 -31q-30 -30 -30 -74z" />
<glyph unicode="&#xe6;" horiz-adv-x="1972" d="M72 358q0 146 119 256q120 111 344 111q26 0 39 -1q26 -2 38 -5q63 -7 131 -36q63 -27 121 -79v111q0 109 -78 156q-80 48 -172 55q-6 0 -17.5 1t-17.5 2q-12 1 -34 1q-41 0 -74 -4q-36 -4 -74 -15q-36 -7 -73 -22q-32 -13 -74 -33l-80 154q122 51 217 66q102 16 168 16 q184 0 288 -58q101 -56 158 -153q44 83 141 141q96 58 199 68q14 2 20 2h17q243 0 383 -171q140 -172 140 -395v-63h-846q6 -135 106 -225q102 -91 248 -91q119 0 188 39t127 109l138 -111q-99 -106 -207 -156q-111 -51 -252 -51q-140 0 -254 58t-164 145 q-82 -112 -193 -157q-113 -46 -255 -46q-195 0 -330 102t-135 279zM268 338q5 -74 72 -137q69 -64 229 -64q164 0 231 64q65 62 70 137v7v5v5v7q-5 76 -70 138q-66 63 -231 63q-161 0 -229 -63q-67 -63 -72 -138v-7v-5v-5v-7zM1055 614h649q-12 141 -107 224q-94 82 -217 82 h-4h-4q-107 -1 -203 -75q-93 -71 -114 -231z" />
<glyph unicode="&#xe7;" horiz-adv-x="1062" d="M92 530q0 230 159 396t388 166q121 0 214 -40q96 -41 155 -87l3 -3l3 -4l-125 -145q-56 53 -117 80t-131 27q-136 0 -245 -100q-107 -98 -107 -296q0 -161 105 -269t265 -108q64 0 128 32q63 31 110 77l109 -135q-74 -75 -169 -109q-99 -35 -200 -35q-245 0 -395 166 q-150 167 -150 387zM362 -303q103 27 167 85q65 59 104 167l178 -66q-57 -136 -154 -200q-98 -64 -241 -82v-2z" />
<glyph unicode="&#xe8;" horiz-adv-x="1290" d="M92 535q0 226 151 392q150 165 400 165q248 0 404 -173q155 -171 155 -456h-913q23 -137 125 -226q104 -90 258 -90q96 0 185 46q91 47 157 126l141 -112q-107 -119 -224 -174q-120 -56 -257 -56q-284 0 -433 173t-149 385zM289 614h704q-15 136 -111 220q-98 86 -241 86 q-156 0 -240 -84q-83 -83 -106 -185q-1 -7 -3 -19zM360 1487v16h248l166 -270h-145z" />
<glyph unicode="&#xe9;" horiz-adv-x="1290" d="M92 535q0 226 151 392q150 165 400 165q248 0 404 -173q155 -171 155 -456h-913q23 -137 125 -226q104 -90 258 -90q96 0 185 46q91 47 157 126l141 -112q-107 -119 -224 -174q-120 -56 -257 -56q-284 0 -433 173t-149 385zM289 614h704q-15 136 -111 220q-98 86 -241 86 q-156 0 -240 -84q-83 -83 -106 -185q-1 -7 -3 -19zM541 1233l166 270h247v-16l-268 -254h-145z" />
<glyph unicode="&#xea;" horiz-adv-x="1290" d="M92 535q0 226 151 392q150 165 400 165q248 0 404 -173q155 -171 155 -456h-913q23 -137 125 -226q104 -90 258 -90q96 0 185 46q91 47 157 126l141 -112q-107 -119 -224 -174q-120 -56 -257 -56q-284 0 -433 173t-149 385zM289 614h704q-15 136 -111 220q-98 86 -241 86 q-156 0 -240 -84q-83 -83 -106 -185q-1 -7 -3 -19zM350 1233l197 270h221l197 -270h-152l-156 156l-155 -156h-152z" />
<glyph unicode="&#xeb;" horiz-adv-x="1290" d="M92 535q0 226 151 392q150 165 400 165q248 0 404 -173q155 -171 155 -456h-913q23 -137 125 -226q104 -90 258 -90q96 0 185 46q91 47 157 126l141 -112q-107 -119 -224 -174q-120 -56 -257 -56q-284 0 -433 173t-149 385zM289 614h704q-15 136 -111 220q-98 86 -241 86 q-156 0 -240 -84q-83 -83 -106 -185q-1 -7 -3 -19zM338 1362q0 53 38 91t91 38t91 -38t38 -91t-38 -91t-91 -38t-91 38t-38 91zM719 1362q0 53 38 91t91 38t91 -38t38 -91t-38 -91t-91 -38t-91 38t-38 91z" />
<glyph unicode="&#xec;" horiz-adv-x="491" d="M-51 1487v16h248l165 -270h-145zM154 0v1067h184v-1067h-184z" />
<glyph unicode="&#xed;" horiz-adv-x="491" d="M129 1233l166 270h248v-16l-269 -254h-145zM154 0v1067h184v-1067h-184z" />
<glyph unicode="&#xee;" horiz-adv-x="491" d="M-61 1233l196 270h221l197 -270h-152l-155 156l-156 -156h-151zM154 0v1067h184v-1067h-184z" />
<glyph unicode="&#xef;" horiz-adv-x="491" d="M-74 1362q2 54 39 91q38 38 90 38q53 0 91 -38t38 -91t-38 -91t-91 -38q-52 0 -90 38q-37 37 -37 91h-2zM154 0v1067h184v-1067h-184zM307 1362q0 53 38 91t91 38t91 -38t38 -91t-38 -91t-91 -38t-91 38t-38 91z" />
<glyph unicode="&#xf0;" horiz-adv-x="1400" d="M123 532q0 227 163 393q164 167 414 167q109 0 190 -36t138 -102l4 4q-30 117 -107 212q-75 93 -180 167l-266 -114l-110 84l245 106q-66 31 -122 50q-65 22 -130 32l160 115q85 -22 152 -49q71 -28 133 -66l266 115l109 -86l-256 -109q176 -144 264 -349 q88 -204 88 -452q0 -319 -164 -478t-414 -159q-259 0 -418 163q-159 164 -159 392zM319 532q0 -154 114 -269q114 -116 267 -116q154 0 268 116q113 114 113 269q0 167 -113 277q-114 111 -268 111q-153 0 -267 -111t-114 -277z" />
<glyph unicode="&#xf1;" horiz-adv-x="1175" d="M141 0v1067h185v-125h4q40 72 123 111t170 39q153 0 283 -93q128 -92 128 -309v-690h-184v621q0 121 -55 209q-56 90 -193 90q-130 0 -203 -84q-73 -83 -73 -236v-600h-185zM274 1251q5 95 42 161q38 67 126 67q14 0 20 -1q12 -2 19 -3q31 -4 66 -17q29 -11 61 -24 l72 -33q33 -15 53 -15q2 0 4.5 0.5t5.5 1.5t5 1q9 2 16 6q19 8 34 27q14 19 19 53h84q-1 -94 -41 -161t-127 -67q-13 0 -19 1t-20 3q-29 4 -65 17q-41 15 -62 26l-70 31q-29 14 -55 14q-4 0 -14 -2q-9 -2 -16 -6q-19 -8 -34 -27q-16 -20 -20 -53h-84z" />
<glyph unicode="&#xf2;" horiz-adv-x="1400" d="M123 532q0 227 163 393q164 167 414 167q251 0 415 -167q163 -166 163 -393q0 -228 -158 -392q-157 -163 -420 -163q-259 0 -418 163q-159 164 -159 392zM319 532q0 -154 114 -269q114 -116 267 -116q154 0 268 116q113 114 113 269q0 167 -113 277q-114 111 -268 111 q-153 0 -267 -111t-114 -277zM403 1487v16h248l166 -270h-145z" />
<glyph unicode="&#xf3;" horiz-adv-x="1400" d="M123 532q0 227 163 393q164 167 414 167q251 0 415 -167q163 -166 163 -393q0 -228 -158 -392q-157 -163 -420 -163q-259 0 -418 163q-159 164 -159 392zM319 532q0 -154 114 -269q114 -116 267 -116q154 0 268 116q113 114 113 269q0 167 -113 277q-114 111 -268 111 q-153 0 -267 -111t-114 -277zM584 1233l166 270h247v-16l-268 -254h-145z" />
<glyph unicode="&#xf4;" horiz-adv-x="1400" d="M123 532q0 227 163 393q164 167 414 167q251 0 415 -167q163 -166 163 -393q0 -228 -158 -392q-157 -163 -420 -163q-259 0 -418 163q-159 164 -159 392zM319 532q0 -154 114 -269q114 -116 267 -116q154 0 268 116q113 114 113 269q0 167 -113 277q-114 111 -268 111 q-153 0 -267 -111t-114 -277zM393 1233l197 270h221l197 -270h-152l-156 156l-155 -156h-152z" />
<glyph unicode="&#xf5;" horiz-adv-x="1400" d="M123 532q0 227 163 393q164 167 414 167q251 0 415 -167q163 -166 163 -393q0 -228 -158 -392q-157 -163 -420 -163q-259 0 -418 163q-159 164 -159 392zM319 532q0 -154 114 -269q114 -116 267 -116q154 0 268 116q113 114 113 269q0 167 -113 277q-114 111 -268 111 q-153 0 -267 -111t-114 -277zM387 1251q5 95 42 161q38 67 126 67q13 0 19 -1t20 -3q29 -4 65 -17q37 -13 62 -24l72 -33q33 -15 53 -15q2 0 7.5 1.5t6.5 1.5q10 2 17 6q18 7 33 27q16 20 20 53h84q-1 -94 -41 -161t-127 -67q-14 0 -20 1q-12 2 -19 3q-31 4 -66 17 q-38 14 -61 26l-71 31q-29 14 -54 14q-4 0 -14 -2q-11 -2 -17 -6q-19 -8 -34 -27q-14 -19 -19 -53h-84z" />
<glyph unicode="&#xf6;" horiz-adv-x="1400" d="M123 532q0 227 163 393q164 167 414 167q251 0 415 -167q163 -166 163 -393q0 -228 -158 -392q-157 -163 -420 -163q-259 0 -418 163q-159 164 -159 392zM319 532q0 -154 114 -269q114 -116 267 -116q154 0 268 116q113 114 113 269q0 167 -113 277q-114 111 -268 111 q-153 0 -267 -111t-114 -277zM381 1362q0 53 38 91t91 38t91 -38t38 -91t-38 -91t-91 -38t-91 38t-38 91zM762 1362q0 53 38 91t91 38t91 -38t38 -91t-38 -91t-91 -38t-91 38t-38 91z" />
<glyph unicode="&#xf7;" horiz-adv-x="1228" d="M96 442v152h1037v-152h-1037zM473 96q0 60 42 101q43 41 99 41q60 0 101 -41t41 -101q0 -57 -41 -98t-101 -41q-56 0 -99 41q-42 41 -42 98zM473 940q0 60 42 100q43 41 99 41q60 0 101 -41t41 -100q0 -56 -41 -99q-41 -42 -101 -42q-57 0 -99 42t-42 99z" />
<glyph unicode="&#xf8;" horiz-adv-x="1400" d="M106 41l144 135q-61 71 -94 163t-33 193q0 227 163 393q164 167 414 167q108 0 204 -35q94 -35 171 -96l148 141l71 -76l-145 -137q60 -71 95 -165q34 -90 34 -192q0 -228 -158 -392q-157 -163 -420 -163q-112 0 -207 33q-98 34 -169 92l-146 -137zM319 532 q0 -57 20 -115t54 -104l547 521q-50 40 -112 63q-61 23 -128 23q-153 0 -267 -111t-114 -277zM465 236q48 -41 107 -64q62 -25 128 -25q154 0 268 116q113 114 113 269q0 64 -18 121q-19 60 -51 105z" />
<glyph unicode="&#xf9;" horiz-adv-x="1175" d="M141 377v690h185v-621q0 -119 55 -208q56 -91 192 -91q129 0 203 84q74 85 74 236v600h184v-1067h-184v125h-4q-41 -72 -122 -110q-82 -38 -171 -38q-156 0 -284 92t-128 308zM291 1487v16h248l166 -270h-146z" />
<glyph unicode="&#xfa;" horiz-adv-x="1175" d="M141 377v690h185v-621q0 -119 55 -208q56 -91 192 -91q129 0 203 84q74 85 74 236v600h184v-1067h-184v125h-4q-41 -72 -122 -110q-82 -38 -171 -38q-156 0 -284 92t-128 308zM471 1233l166 270h248v-16l-269 -254h-145z" />
<glyph unicode="&#xfb;" horiz-adv-x="1175" d="M141 377v690h185v-621q0 -119 55 -208q56 -91 192 -91q129 0 203 84q74 85 74 236v600h184v-1067h-184v125h-4q-41 -72 -122 -110q-82 -38 -171 -38q-156 0 -284 92t-128 308zM281 1233l196 270h221l197 -270h-152l-155 156l-156 -156h-151z" />
<glyph unicode="&#xfc;" horiz-adv-x="1175" d="M141 377v690h185v-621q0 -119 55 -208q56 -91 192 -91q129 0 203 84q74 85 74 236v600h184v-1067h-184v125h-4q-41 -72 -122 -110q-82 -38 -171 -38q-156 0 -284 92t-128 308zM268 1362q0 53 38 91t91 38t91 -38t38 -91t-38 -91t-91 -38t-91 38t-38 91zM649 1362 q0 53 38 91t91 38t91 -38t38 -91t-38 -91t-91 -38t-91 38t-38 91z" />
<glyph unicode="&#xfd;" horiz-adv-x="532" />
<glyph unicode="&#xfe;" horiz-adv-x="1400" d="M154 -451v2007h184v-657h4q63 91 170 141q109 51 223 52h5h8q224 0 390 -158q165 -158 165 -389q0 -252 -170 -410t-394 -158q-136 0 -237 53t-160 134h-4v-615h-184zM338 532q0 -159 113 -272t270 -113q144 0 265 106q120 105 120 290q0 16 -1 24q-1 12 -3 27 q-16 121 -117 223q-101 103 -270 103q-148 0 -263 -113q-114 -113 -114 -275z" />
<glyph unicode="&#xff;" horiz-adv-x="1175" d="M16 1067h209l342 -823l346 823h197l-655 -1518h-193l199 467zM268 1362q0 53 38 91t91 38t91 -38t38 -91t-38 -91t-91 -38t-91 38t-38 91zM649 1362q0 53 38 91t91 38t91 -38t38 -91t-38 -91t-91 -38t-91 38t-38 91z" />
<glyph unicode="&#x152;" horiz-adv-x="2086" d="M80 778q0 304 170 554q170 249 510 249q156 0 275 -54q118 -54 196 -175l4 -2v206h750v-184h-562v-514h562v-184h-562v-490h562v-184h-750v205h-4q-79 -120 -196 -173q-121 -55 -275 -55q-340 0 -510 249q-170 250 -170 552zM276 733q10 -219 120 -402q110 -184 364 -184 q251 0 360 184t119 402v24v21v22v23q-11 219 -119 403q-108 183 -360 183q-254 0 -364 -183q-109 -183 -120 -403v-23v-22v-21v-24z" />
<glyph unicode="&#x153;" horiz-adv-x="2086" d="M84 524q0 22 1 34t3 34q21 188 154 343q134 157 385 157q127 0 241 -54q110 -52 193 -176q80 115 175 172q96 58 245 58q243 0 383 -171q139 -170 139 -395v-63h-858q12 -135 116 -225q105 -91 250 -91q120 0 189 39t127 109l137 -111q-99 -106 -207 -156 q-111 -51 -252 -51q-128 0 -247 48q-114 46 -203 182q-66 -115 -181 -173q-112 -57 -247 -57q-255 0 -399 163q-144 164 -144 384zM281 530q0 -154 92 -269q91 -114 254 -114q162 0 254 114q92 115 92 269v12v11q-6 138 -93 252q-88 115 -253 115t-253 -115 q-87 -114 -93 -252v-11v-12zM1145 614h661q-12 142 -106 224t-217 82h-4h-4q-109 -2 -204 -71q-96 -70 -126 -235z" />
<glyph unicode="&#x178;" horiz-adv-x="1290" d="M20 1556h230l395 -729l395 729h230l-527 -935v-621h-196v621zM326 1782q0 53 38 91t91 38t91 -38t38 -91t-38 -91t-91 -38t-91 38t-38 91zM707 1782q0 54 37 91q38 38 92 38q53 0 91 -38t38 -91t-38 -91t-91 -38q-54 0 -92 38q-37 37 -37 91z" />
<glyph unicode="&#x2c6;" horiz-adv-x="491" d="M-68 1251q5 95 42 161q38 67 126 67q14 0 20 -1q12 -2 19 -3q31 -4 66 -17q29 -11 61 -24l72 -33q33 -15 53 -15l15 3q9 2 16 6q19 8 34 27q14 19 19 53h84q-1 -94 -41 -161t-127 -67q-13 0 -19 1t-20 3q-29 4 -65 17q-41 15 -62 26l-70 31q-29 14 -55 14q-4 0 -14 -2 q-9 -2 -16 -6q-19 -8 -34 -27q-16 -20 -20 -53h-84z" />
<glyph unicode="&#x2dc;" horiz-adv-x="491" d="M-61 1233l196 270h221l197 -270h-152l-155 156l-156 -156h-151z" />
<glyph unicode="&#x2000;" horiz-adv-x="988" />
<glyph unicode="&#x2001;" horiz-adv-x="1976" />
<glyph unicode="&#x2002;" horiz-adv-x="988" />
<glyph unicode="&#x2003;" horiz-adv-x="1976" />
<glyph unicode="&#x2004;" horiz-adv-x="658" />
<glyph unicode="&#x2005;" horiz-adv-x="494" />
<glyph unicode="&#x2006;" horiz-adv-x="329" />
<glyph unicode="&#x2007;" horiz-adv-x="329" />
<glyph unicode="&#x2008;" horiz-adv-x="247" />
<glyph unicode="&#x2009;" horiz-adv-x="395" />
<glyph unicode="&#x200a;" horiz-adv-x="109" />
<glyph unicode="&#x2010;" horiz-adv-x="606" d="M61 473v184h484v-184h-484z" />
<glyph unicode="&#x2011;" horiz-adv-x="606" d="M61 473v184h484v-184h-484z" />
<glyph unicode="&#x2012;" horiz-adv-x="606" d="M61 473v184h484v-184h-484z" />
<glyph unicode="&#x2013;" horiz-adv-x="1024" d="M0 485v162h1024v-162h-1024z" />
<glyph unicode="&#x2014;" horiz-adv-x="2048" d="M0 485v162h2048v-162h-2048z" />
<glyph unicode="&#x2018;" horiz-adv-x="606" d="M113 1057l249 499l132 -63l-191 -514z" />
<glyph unicode="&#x2019;" horiz-adv-x="606" d="M113 1042l190 514l191 -77l-250 -500z" />
<glyph unicode="&#x201a;" horiz-adv-x="606" d="M76 -279l190 515l191 -78l-250 -500z" />
<glyph unicode="&#x201c;" d="M129 1057l250 499l131 -63l-191 -514zM555 1057l250 499l131 -63l-191 -514z" />
<glyph unicode="&#x201d;" d="M129 1042l190 514l191 -77l-250 -500zM555 1042l190 514l191 -77l-250 -500z" />
<glyph unicode="&#x201e;" d="M106 -279l191 515l190 -78l-249 -500zM532 -279l191 515l190 -78l-249 -500z" />
<glyph unicode="&#x2022;" horiz-adv-x="1024" d="M123 778q0 162 114 276q113 113 275 113t275 -113q114 -114 114 -276q0 -161 -114 -275t-275 -114t-275 114t-114 275z" />
<glyph unicode="&#x2026;" horiz-adv-x="2048" d="M207 119q0 55 40 95t95 40t95 -40t40 -95t-40 -94q-41 -39 -95 -39t-95 39q-40 39 -40 94zM889 119q0 55 40 95t95 40t95 -40t40 -95t-40 -94q-41 -39 -95 -39t-95 39q-40 39 -40 94zM1571 119q0 55 40 95t95 40t95 -40t40 -95t-40 -94q-41 -39 -95 -39t-95 39 q-40 39 -40 94z" />
<glyph unicode="&#x202f;" horiz-adv-x="395" />
<glyph unicode="&#x2039;" horiz-adv-x="606" d="M113 565l219 393h172l-230 -393l230 -393h-172z" />
<glyph unicode="&#x203a;" horiz-adv-x="606" d="M102 172l230 393l-230 393h172l220 -393l-220 -393h-172z" />
<glyph unicode="&#x205f;" horiz-adv-x="494" />
<glyph unicode="&#x2122;" horiz-adv-x="2027" d="M74 1442v114h671v-114h-260v-729h-151v729h-260zM889 713v843h231l240 -622l239 622h232v-843h-152v692h-4l-264 -692h-102l-265 692h-4v-692h-151z" />
<glyph unicode="&#xe000;" d="M0 0v1065h1065v-1065h-1065z" />
</font>
</defs>
</svg>
